<svg xmlns="http://www.w3.org/2000/svg" viewBox="0 0 920 260" role="img" aria-labelledby="title desc">
  <title id="title">Nexo Voice</title>
  <desc id="desc">Logo Nexo Voice en negro, dorado y plata con monograma NV y onda de voz.</desc>
  <defs>
    <linearGradient id="gold" x1="0" y1="0" x2="1" y2="1">
      <stop offset="0" stop-color="#7a5520"/><stop offset="0.22" stop-color="#f1d38a"/><stop offset="0.48" stop-color="#c79645"/><stop offset="0.75" stop-color="#f6dc96"/><stop offset="1" stop-color="#8d6427"/>
    </linearGradient>
    <linearGradient id="silver" x1="0" y1="0" x2="1" y2="1">
      <stop offset="0" stop-color="#686868"/><stop offset="0.22" stop-color="#f7f7f7"/><stop offset="0.5" stop-color="#a5a5a5"/><stop offset="0.78" stop-color="#f0f0f0"/><stop offset="1" stop-color="#777"/>
    </linearGradient>
    <filter id="shadow" x="-20%" y="-20%" width="140%" height="140%"><feDropShadow dx="0" dy="5" stdDeviation="5" flood-color="#000" flood-opacity=".6"/></filter>
  </defs>
  <g filter="url(#shadow)">
    <path d="M210 38a82 82 0 1 0 0 164h35v-18h-35a64 64 0 1 1 51-103l15-10A82 82 0 0 0 210 38Z" fill="url(#gold)"/>
    <path d="M181 125l18 18 48-52" fill="none" stroke="url(#gold)" stroke-width="14" stroke-linecap="round" stroke-linejoin="round"/>
    <path d="M299 178V72l93 106V72" fill="none" stroke="url(#silver)" stroke-width="19" stroke-linecap="square" stroke-linejoin="round"/>
    <g stroke="url(#gold)" stroke-width="8" stroke-linecap="round">
      <path d="M141 112v16"/><path d="M155 101v38"/><path d="M169 92v56"/><path d="M183 104v32"/><path d="M197 112v16"/>
    </g>
  </g>
  <g font-family="Arial,Helvetica,sans-serif" font-weight="700" letter-spacing="8">
    <text x="448" y="117" font-size="68" fill="url(#gold)">NEXO</text>
    <text x="448" y="188" font-size="68" fill="url(#silver)">VOICE</text>
  </g>
</svg>